<?xml version="1.0" standalone="no"?>
<!DOCTYPE svg PUBLIC "-//W3C//DTD SVG 20010904//EN"
 "http://www.w3.org/TR/2001/REC-SVG-20010904/DTD/svg10.dtd">
<svg version="1.0" xmlns="http://www.w3.org/2000/svg"
 width="1679.000000pt" height="599.000000pt" viewBox="0 0 1679.000000 599.000000"
 preserveAspectRatio="xMidYMid meet">

<g transform="translate(0.000000,599.000000) scale(0.100000,-0.100000)"
fill="#000000" stroke="none">
<path d="M10003 5914 c-73 -41 -133 -78 -133 -82 0 -4 99 -180 219 -392 120
-212 218 -386 217 -387 0 -1 -135 -18 -299 -37 -486 -59 -603 -51 -760 54 -87
58 -124 100 -206 237 -33 55 -90 132 -126 171 l-65 70 0 158 0 157 -139 -7
c-552 -26 -1132 -198 -1627 -482 -515 -295 -942 -693 -1286 -1199 -45 -66
-117 -157 -160 -203 -223 -237 -338 -502 -354 -817 -22 -425 164 -818 511
-1077 105 -79 295 -171 417 -202 458 -118 913 11 1238 350 179 187 290 408
334 667 l7 37 2886 -2 2886 -3 18 -90 c98 -487 481 -868 979 -977 138 -30 366
-30 509 1 441 94 799 414 941 839 47 144 64 272 57 446 -10 251 -73 446 -214
659 -60 92 -237 269 -328 329 -152 100 -337 175 -492 199 l-81 13 -33 86 c-17
47 -63 147 -102 223 -140 278 -305 463 -499 559 -152 76 5 71 -1988 69 l-1785
-2 -109 193 c-60 106 -150 266 -200 355 -50 89 -93 162 -96 163 -3 0 -65 -34
-137 -76z m-120 -1260 c192 -50 355 -204 418 -395 34 -103 34 -264 1 -360
-147 -428 -673 -558 -987 -244 -119 119 -175 254 -175 422 0 173 50 294 174
419 86 86 160 130 266 158 74 20 227 20 303 0z m-3229 -754 c332 -47 595 -290
682 -630 24 -94 22 -271 -5 -375 -77 -296 -309 -525 -606 -596 -75 -18 -110
-20 -215 -16 -143 5 -211 21 -327 77 -214 104 -371 298 -434 535 -29 109 -29
288 -1 395 71 270 267 482 527 572 133 46 243 56 379 38z m8350 -15 c143 -38
252 -97 358 -195 89 -81 140 -151 189 -255 57 -120 73 -198 73 -345 0 -147
-21 -237 -85 -365 -98 -197 -276 -346 -494 -415 -100 -32 -294 -39 -400 -15
-168 37 -304 114 -422 239 -87 90 -143 184 -184 307 -27 80 -33 113 -37 219
-3 104 -1 140 17 215 41 171 146 341 274 445 63 51 201 128 271 150 128 41
315 48 440 15z"/>
<path d="M1764 4315 c-134 -30 -228 -79 -313 -164 -55 -55 -111 -150 -127
-216 -11 -49 -33 -85 -51 -85 -9 0 -51 12 -92 27 -66 23 -92 27 -191 27 -98 0
-127 -4 -195 -27 -276 -92 -521 -340 -618 -626 -32 -95 -32 -98 -31 -286 0
-178 2 -196 28 -280 56 -185 156 -347 301 -490 109 -108 198 -170 341 -240
157 -76 188 -104 204 -183 55 -267 137 -433 302 -608 191 -201 411 -294 663
-281 247 13 440 101 611 278 117 123 195 253 236 396 19 65 22 101 22 218 -1
122 -4 151 -27 228 -66 215 -195 388 -368 490 -75 44 -105 47 -121 12 -20 -44
13 -105 112 -203 142 -141 196 -243 221 -416 30 -199 -56 -440 -212 -597 -93
-93 -186 -149 -319 -190 -107 -34 -292 -34 -400 0 -206 63 -365 199 -455 386
-44 91 -80 240 -70 291 9 49 56 96 120 119 151 55 199 80 253 130 49 45 56 57
56 90 0 29 -7 43 -28 62 -33 28 -38 27 -166 -32 -125 -58 -196 -76 -305 -76
-128 -1 -251 43 -400 144 -353 239 -500 710 -334 1075 117 258 394 444 643
430 125 -7 191 -52 288 -197 50 -74 100 -107 148 -96 31 7 70 47 70 73 0 8
-16 65 -36 126 -31 95 -35 121 -31 178 8 123 79 222 206 292 194 105 477 62
718 -110 271 -194 453 -517 441 -784 -6 -139 -62 -218 -206 -293 -37 -19 -92
-42 -122 -52 -30 -10 -67 -24 -82 -31 -25 -13 -26 -17 -16 -39 6 -14 31 -34
55 -46 39 -19 55 -21 141 -15 53 3 124 8 157 12 44 4 83 0 150 -16 86 -20 391
-85 540 -115 39 -7 194 -39 345 -70 212 -44 285 -55 320 -50 57 9 80 21 80 44
0 44 -111 101 -275 140 -125 30 -787 174 -852 185 -80 15 -123 45 -123 86 0
15 12 59 27 96 24 60 27 83 27 179 0 98 -3 120 -32 204 -44 128 -121 273 -199
378 -215 290 -443 457 -703 518 -79 18 -242 18 -326 0z"/>
<path d="M2782 2488 c-18 -18 -15 -35 15 -115 27 -73 28 -73 78 -87 27 -8 214
-33 415 -55 201 -23 439 -50 530 -61 763 -89 1220 -140 1262 -140 44 0 108 24
108 40 0 3 -8 15 -18 27 -32 41 -158 72 -476 118 -166 24 -551 83 -856 130
-1139 176 -1038 163 -1058 143z"/>
<path d="M5074 893 c-181 -268 -337 -499 -348 -515 l-18 -29 93 3 93 3 91 133
c79 117 118 162 130 150 2 -1 7 -67 11 -146 l7 -142 110 0 110 0 -9 133 c-5
72 -9 167 -9 211 l0 78 237 147 236 146 -109 3 -109 3 -183 -120 c-100 -65
-184 -118 -185 -116 -2 2 16 32 40 67 81 115 318 468 318 473 0 3 -40 5 -89 5
l-88 0 -329 -487z"/>
<path d="M9732 1368 c-5 -7 -162 -238 -347 -513 l-336 -500 87 -3 c62 -2 91 1
99 10 7 7 77 110 157 228 79 118 228 339 330 490 101 151 188 281 192 288 6 9
-14 12 -82 12 -60 0 -93 -4 -100 -12z"/>
<path d="M8487 1338 c-241 -28 -513 -262 -494 -425 4 -39 12 -53 45 -83 21
-19 60 -47 86 -62 62 -37 75 -65 51 -119 -25 -55 -104 -124 -167 -145 -79 -26
-187 -16 -242 23 l-44 31 -73 -74 c-71 -72 -72 -74 -55 -93 30 -33 112 -54
206 -54 108 1 193 22 300 75 112 56 235 174 279 268 56 117 38 170 -83 244
-41 26 -78 56 -81 67 -11 35 6 80 46 119 56 54 103 74 186 78 65 4 77 1 119
-23 l46 -27 75 73 c74 74 74 74 52 91 -41 34 -144 49 -252 36z"/>
<path d="M11386 1319 c-288 -71 -599 -325 -737 -604 -35 -70 -43 -97 -47 -159
-4 -64 -1 -79 19 -115 42 -75 114 -103 262 -103 102 1 241 23 285 46 15 8 35
38 53 80 16 38 29 69 29 71 0 2 -28 -6 -62 -17 -36 -12 -104 -22 -160 -25 -85
-5 -102 -3 -141 16 -78 38 -89 112 -33 228 46 95 103 172 192 258 81 79 154
126 252 163 56 21 85 26 172 26 93 1 110 -2 145 -23 l40 -23 68 73 c37 40 66
78 64 83 -15 46 -255 61 -401 25z"/>
<path d="M13415 1330 c-49 -5 -99 -14 -110 -19 -17 -7 -655 -939 -655 -956 0
-3 40 -5 88 -5 l88 0 135 200 134 200 63 0 c50 0 66 -4 83 -21 27 -27 22 -50
-47 -210 -75 -174 -76 -169 39 -169 l92 0 18 63 c10 34 39 109 65 167 40 91
47 114 47 172 l0 66 50 25 c164 81 305 248 305 360 0 87 -62 125 -214 132 -50
2 -131 0 -181 -5z m166 -167 c20 -20 21 -26 11 -62 -16 -51 -93 -136 -151
-166 -67 -34 -241 -61 -241 -38 0 4 44 72 98 151 l97 144 82 -4 c69 -2 86 -7
104 -25z"/>
<path d="M3514 933 c-147 -219 -296 -440 -331 -491 l-64 -92 293 1 293 0 47
72 48 72 -196 5 -195 5 162 240 c89 132 213 316 275 408 63 92 114 170 114
173 0 2 -40 4 -89 4 l-89 0 -268 -397z"/>
<path d="M4445 1311 c-59 -27 -115 -93 -115 -136 0 -29 4 -36 26 -41 40 -10
95 3 139 34 69 48 104 119 73 150 -18 18 -77 14 -123 -7z"/>
<path d="M10042 1308 c-53 -26 -112 -93 -112 -128 0 -35 17 -50 60 -50 104 1
231 135 178 188 -18 18 -78 14 -126 -10z"/>
<path d="M16212 1315 c-48 -21 -84 -51 -109 -93 -27 -44 -28 -55 -7 -76 56
-56 244 52 244 140 0 43 -64 57 -128 29z"/>
<path d="M6764 1246 c-50 -13 -95 -26 -102 -29 -6 -4 -32 -39 -57 -77 l-47
-70 -52 0 -53 0 -47 -70 c-25 -38 -46 -72 -46 -75 0 -3 20 -5 45 -5 25 0 45
-3 45 -6 0 -3 -51 -81 -114 -172 -149 -219 -179 -273 -179 -324 0 -22 7 -46
16 -55 31 -31 141 -37 224 -11 24 7 42 26 72 73 23 36 41 66 41 69 0 2 -29 1
-65 -2 -64 -5 -65 -4 -65 19 0 15 52 101 128 214 l128 190 89 3 90 3 29 45
c16 25 30 43 32 41 2 -2 -34 -140 -79 -308 l-83 -304 -65 -52 c-76 -62 -139
-98 -234 -133 l-69 -25 -27 -70 c-21 -56 -24 -71 -13 -73 26 -6 169 48 248 93
154 88 264 182 760 650 l296 280 -97 3 -97 3 -223 -223 c-123 -123 -223 -217
-223 -209 0 12 70 249 115 389 l14 42 -180 0 -180 0 59 88 c73 109 75 112 65
111 -4 -1 -49 -11 -99 -23z"/>
<path d="M10405 1244 l-100 -25 -49 -74 -48 -75 -53 0 -53 0 -50 -74 -51 -75
50 -3 50 -3 -122 -180 c-123 -183 -179 -283 -179 -321 0 -60 72 -89 181 -74
90 13 94 15 125 68 15 26 34 57 41 69 14 22 14 22 -41 16 -75 -8 -89 -1 -75
34 5 15 65 110 132 210 l122 182 87 1 87 0 51 75 50 74 -85 3 -85 3 56 80 c64
92 78 115 67 114 -4 -1 -53 -12 -108 -25z"/>
<path d="M6094 1079 c-230 -29 -502 -244 -609 -482 -65 -143 -26 -235 110
-257 70 -11 203 1 291 28 54 16 61 21 81 62 12 25 26 57 32 71 l9 26 -60 -18
c-82 -26 -186 -35 -232 -19 -57 19 -69 57 -40 130 l16 40 233 0 234 0 34 43
c83 100 134 251 105 306 -31 57 -104 83 -204 70z m4 -151 c17 -17 15 -63 -3
-98 l-16 -30 -142 0 -142 1 50 46 c28 25 73 57 100 69 54 26 133 32 153 12z"/>
<path d="M4772 1060 c-94 -25 -230 -96 -312 -163 -135 -110 -252 -282 -265
-392 -15 -125 90 -187 279 -164 43 6 101 18 130 27 53 18 58 24 102 128 l13
32 -47 -15 c-130 -40 -217 -35 -249 13 -14 23 -15 32 -4 73 29 108 140 234
261 294 57 28 74 32 146 32 67 0 86 -4 103 -19 l22 -20 74 74 75 75 -37 19
c-56 29 -196 32 -291 6z"/>
<path d="M9000 1061 c-30 -10 -70 -25 -87 -35 -37 -19 -40 -16 -17 19 l16 25
-84 0 -85 0 -331 -495 c-183 -272 -332 -496 -332 -497 0 -2 41 -2 91 -2 l91 1
95 144 c53 79 99 148 103 152 4 4 25 -2 46 -15 31 -19 53 -23 109 -22 222 3
497 202 631 457 65 125 57 234 -20 271 -45 21 -155 20 -226 -3z m50 -141 c88
-47 -68 -310 -241 -405 -61 -33 -152 -41 -182 -16 -22 17 -22 73 -1 114 37 71
115 176 164 220 89 80 202 118 260 87z"/>
<path d="M11815 1060 c-83 -22 -141 -45 -151 -61 -3 -6 -14 -37 -24 -70 l-18
-58 39 19 c87 45 217 63 255 36 18 -14 18 -17 4 -58 l-15 -43 -86 -7 c-178
-15 -336 -86 -447 -201 -103 -108 -130 -201 -72 -250 53 -45 147 -45 268 1 52
20 53 20 47 1 -6 -18 -1 -19 79 -19 l86 0 24 48 c13 26 80 130 149 232 174
258 205 329 174 390 -30 61 -168 78 -312 40z m-11 -382 c-76 -128 -171 -198
-269 -198 -43 0 -45 1 -45 28 0 74 105 153 225 171 89 13 97 13 89 -1z"/>
<path d="M12619 1065 c-20 -7 -50 -20 -67 -29 -34 -18 -38 -15 -22 15 10 18 7
19 -74 19 l-85 0 -30 -52 c-16 -29 -123 -190 -236 -358 l-206 -305 87 -3 c62
-2 91 1 99 10 7 7 67 95 134 196 189 283 272 358 393 355 l57 -1 50 77 c28 42
51 80 51 84 0 12 -113 6 -151 -8z"/>
<path d="M14040 1061 c-171 -54 -338 -182 -455 -346 -63 -87 -94 -166 -95
-233 0 -67 23 -103 82 -127 75 -32 267 -19 381 24 21 8 35 27 57 77 17 36 30
67 30 69 0 2 -28 -6 -62 -16 -90 -28 -194 -35 -240 -16 -49 20 -57 53 -32 116
l20 46 234 3 235 3 43 58 c117 161 132 300 38 345 -46 21 -164 20 -236 -3z
m90 -136 c15 -18 8 -88 -10 -110 -10 -12 -42 -15 -154 -15 l-141 1 50 45 c28
24 72 56 99 69 58 29 136 34 156 10z"/>
<path d="M14830 1065 c-25 -7 -67 -22 -93 -34 l-48 -21 16 22 c8 13 15 26 15
30 0 5 -37 8 -83 8 l-83 0 -33 -54 c-18 -30 -165 -252 -327 -492 -162 -241
-290 -440 -285 -443 7 -5 115 -6 163 -2 4 1 52 69 108 151 55 83 103 150 106
150 3 0 17 -9 30 -19 58 -46 217 -30 345 34 222 112 449 392 449 552 0 50 -18
82 -59 110 -28 19 -47 23 -105 22 -39 0 -91 -7 -116 -14z m42 -152 c47 -42 -1
-166 -107 -281 -36 -38 -86 -84 -113 -101 -54 -35 -137 -57 -176 -47 -36 9
-59 48 -51 86 10 43 116 202 172 255 92 89 227 132 275 88z"/>
<path d="M15444 1060 c-125 -33 -144 -46 -171 -120 -12 -36 -23 -66 -23 -68 0
-1 17 6 38 17 88 45 221 64 258 37 18 -14 18 -17 4 -58 l-15 -43 -81 -7 c-127
-10 -227 -41 -335 -105 -117 -67 -219 -201 -219 -284 0 -29 7 -43 30 -62 53
-45 147 -45 268 1 52 20 53 20 47 1 -6 -18 -1 -19 79 -19 l86 0 24 48 c13 26
80 131 149 233 173 257 205 328 174 389 -30 61 -168 78 -313 40z m-26 -407
c-34 -58 -122 -139 -171 -158 -24 -9 -61 -15 -83 -13 -32 2 -40 7 -42 26 -5
34 40 97 91 126 45 27 140 54 194 55 l32 1 -21 -37z"/>
<path d="M16575 1066 c-22 -7 -55 -20 -72 -30 -18 -9 -33 -12 -33 -7 0 5 5 13
10 16 27 17 2 25 -73 25 l-83 0 -18 -32 c-11 -18 -117 -181 -238 -361 l-219
-328 93 3 93 3 140 207 c77 114 158 226 180 248 73 76 161 115 225 101 35 -7
35 -7 88 71 28 42 52 82 52 88 0 14 -96 11 -145 -4z"/>
<path d="M4188 973 c-36 -54 -142 -211 -235 -349 -93 -137 -173 -255 -177
-262 -5 -9 16 -12 86 -12 l93 1 235 350 c129 192 237 354 238 359 2 6 -34 10
-86 10 l-89 0 -65 -97z"/>
<path d="M9814 1007 c-23 -34 -132 -196 -243 -359 l-201 -298 93 0 93 0 27 41
c15 22 123 184 242 360 l216 319 -93 0 -93 0 -41 -63z"/>
<path d="M15787 738 c-123 -183 -232 -346 -242 -361 l-18 -28 93 3 93 3 65 95
c256 378 412 611 412 615 0 3 -40 5 -90 5 l-89 0 -224 -332z"/>
<path d="M7367 750 l-48 -70 203 0 203 1 48 69 48 70 -203 0 -203 -1 -48 -69z"/>
</g>
</svg>
